<svg width="120" height="120" viewBox="0 0 120 120" fill="none" xmlns="http://www.w3.org/2000/svg">
  <path d="M60 20C37.909 20 20 37.909 20 60C20 82.091 37.909 100 60 100C82.091 100 100 82.091 100 60C100 37.909 82.091 20 60 20Z" fill="#3B82F6"/>
  <path d="M60 35C48.954 35 40 43.954 40 55C40 66.046 48.954 75 60 75C71.046 75 80 66.046 80 55C80 43.954 71.046 35 60 35ZM60 70C51.729 70 45 63.271 45 55C45 46.729 51.729 40 60 40C68.271 40 75 46.729 75 55C75 63.271 68.271 70 60 70Z" fill="#FFF"/>
  <path d="M55 50C56.6569 50 58 48.6569 58 47C58 45.3431 56.6569 44 55 44C53.3431 44 52 45.3431 52 47C52 48.6569 53.3431 50 55 50Z" fill="#FFF"/>
  <path d="M65 50C66.6569 50 68 48.6569 68 47C68 45.3431 66.6569 44 65 44C63.3431 44 62 45.3431 62 47C62 48.6569 63.3431 50 65 50Z" fill="#FFF"/>
  <path d="M60 65C64.4183 65 68 61.4183 68 57H52C52 61.4183 55.5817 65 60 65Z" fill="#FFF"/>
  <path d="M85 25C88.866 25 92 21.866 92 18C92 14.134 88.866 11 85 11C81.134 11 78 14.134 78 18C78 21.866 81.134 25 85 25Z" fill="#3B82F6"/>
  <path d="M35 85C38.866 85 42 81.866 42 78C42 74.134 38.866 71 35 71C31.134 71 28 74.134 28 78C28 81.866 31.134 85 35 85Z" fill="#3B82F6"/>
  <path d="M90 90L75 75M75 75V85M75 75H85" stroke="#FFF" stroke-width="4" stroke-linecap="round" stroke-linejoin="round"/>
</svg> 