<svg width="120" height="120" viewBox="0 0 120 120" fill="none" xmlns="http://www.w3.org/2000/svg">
  <circle cx="60" cy="60" r="45" fill="#3B82F6"/>
  <path d="M60 35C48.954 35 40 43.954 40 55C40 66.046 48.954 75 60 75C71.046 75 80 66.046 80 55C80 43.954 71.046 35 60 35ZM60 70C51.729 70 45 63.271 45 55C45 46.729 51.729 40 60 40C68.271 40 75 46.729 75 55C75 63.271 68.271 70 60 70Z" fill="#FFF"/>
  <path d="M55 50C56.6569 50 58 48.6569 58 47C58 45.3431 56.6569 44 55 44C53.3431 44 52 45.3431 52 47C52 48.6569 53.3431 50 55 50Z" fill="#FFF"/>
  <path d="M65 50C66.6569 50 68 48.6569 68 47C68 45.3431 66.6569 44 65 44C63.3431 44 62 45.3431 62 47C62 48.6569 63.3431 50 65 50Z" fill="#FFF"/>
  <path d="M60 65C64.4183 65 68 61.4183 68 57H52C52 61.4183 55.5817 65 60 65Z" fill="#FFF"/>
  <path d="M85 30C88.866 30 92 26.866 92 23C92 19.134 88.866 16 85 16C81.134 16 78 19.134 78 23C78 26.866 81.134 30 85 30Z" fill="#EF4444"/>
</svg> 